<svg xmlns="http://www.w3.org/2000/svg" width="30" height="30" viewBox="0 0 30 30">
    <g fill="none" fill-rule="evenodd">
        <path fill="#306CCC" fill-rule="nonzero" d="M22.118 15.706c-.06-.588-.118-1.177-.118-1.765-.235-3.353-.412-5.941-1.588-7.706-1.177-1.823-2.588-2.53-4.883-2.53h-.058-.06c-2.352 0-3.705.766-4.882 2.53-1.117 1.706-1.294 4.353-1.588 7.706-.059.588-.059 1.177-.117 1.765-.236 2.765-1.765 5.059-2.942 6.176a1.402 1.402 0 0 0-.353.647h20a1.402 1.402 0 0 0-.353-.647c-1.294-1.117-2.823-3.411-3.058-6.176zm4.588 9h-8.118v1.235a3.163 3.163 0 0 1-3.176 3.177 3.163 3.163 0 0 1-3.177-3.177v-1.235H4.118c-.589 0-1.118-.47-1.118-1.118 0-.823.176-2.353 1.235-3.353.765-.706 2.06-2.411 2.236-4.706.058-.588.117-1.176.117-1.764.236-3.53.47-6.53 1.941-8.765 1.236-1.824 2.706-2.882 4.647-3.353C13.53.647 14.353 0 15.294 0c.941 0 1.765.706 2.118 1.647 2 .412 3.47 1.47 4.647 3.353 1.47 2.176 1.647 5.235 1.941 8.706.059.588.059 1.176.118 1.765.176 2.294 1.53 4.058 2.235 4.705 1.059.942 1.235 2.353 1.235 3.353.236.647-.235 1.177-.882 1.177zM14.529 25.94c0 .53.412.941.942.941a.93.93 0 0 0 .94-.94v-1.236H14.53v1.235z"/>
        <circle cx="23.5" cy="22.5" r="5.5" fill="#C60713" stroke="#FFF"/>
    </g>
</svg>
