<svg xmlns="http://www.w3.org/2000/svg" xmlns:xlink="http://www.w3.org/1999/xlink" viewBox="0 0 123.685 110.08">
  <defs>
    <style>
      .cls-1 {
        fill: #306ccc;
      }

      .cls-2 {
        opacity: 0.5;
        fill: url(#linear-gradient);
      }
    </style>
    <linearGradient id="linear-gradient" x1="0.127" y1="0.661" x2="0.76" y2="0.102" gradientUnits="objectBoundingBox">
      <stop offset="0.002" stop-color="#1d4e9c"/>
      <stop offset="1" stop-color="#306ccc"/>
    </linearGradient>
  </defs>
  <g id="Group_295" data-name="Group 295" transform="translate(-0.078 -0.098)">
    <path id="Path_31" data-name="Path 31" class="cls-1" d="M119.419,78c.835-12.845-2.44-25.882-10.4-35.965A42.8,42.8,0,0,0,89.363,28.1c-12.588-4.046-27.423.642-35.772,10.918S43.764,64.58,49.608,76.461c-3.468-4.817-6.037-10.212-9.12-15.221s-7-9.826-12.2-12.524c-5.266-2.7-12.138-2.954-16.827.706C6.707,53.148,5.359,59.7,5.23,65.671c-.45,16.377,5.074,30.891,17.4,44.507-6.487-5.266-8.863-8.285-12.331-13.615A62.232,62.232,0,0,1,2.533,79.479c-3.275-11.56-3.6-25.561,1.028-36.8C11.4,23.605,27.9,7.935,47.874,2.347A62.926,62.926,0,0,1,87.051,4.274a57.086,57.086,0,0,1,29.671,25.432A56.751,56.751,0,0,1,121.988,71,53.677,53.677,0,0,1,119.419,78Z" transform="translate(0)"/>
    <path id="Path_32" data-name="Path 32" class="cls-2" d="M106.714,35.611a6.6,6.6,0,0,0-1.092-.064c-.385-.064-.835-.064-1.22-.128-1.413-.064-2.762-.064-4.11-.064-.642.064-1.22.064-1.8.128-.642.064-1.22.128-1.8.193a14.325,14.325,0,0,0-1.477.257.236.236,0,0,0-.193.064l-.771.193a5.439,5.439,0,0,0-1.092.257c-.578.128-1.156.321-1.734.45A31.693,31.693,0,0,0,79.291,43.96a20.482,20.482,0,0,0-1.67,1.67l-.321.321c-.45.514-.963,1.028-1.413,1.541-.385.578-.835,1.156-1.22,1.8-.321.45-.578.9-.9,1.413A45.652,45.652,0,0,0,71.2,55.713a14.692,14.692,0,0,1-.642,1.477c-.128.257-.193.578-.321.9,0,.064-.064.064-.064.128A32.827,32.827,0,0,0,68.63,74.851v.193a37.428,37.428,0,0,0,3.4,10.34.687.687,0,0,1-.193-.321A.063.063,0,0,0,71.777,85c-3.018-4.624-28.9-47.4,22.35-60.5Z" transform="translate(-22.361 -8.73)"/>
    <path id="Path_33" data-name="Path 33" class="cls-1" d="M107.353,112.843a20.167,20.167,0,0,1,3.918-5.909,15.875,15.875,0,0,1,6.165-4.046c.578-.193,1.22-.385,1.862-.578a7.113,7.113,0,0,1-.128-1.22v-.771a3.629,3.629,0,0,1,.835-2.119,14.431,14.431,0,0,0-3.982.963,17.16,17.16,0,0,0-6.165,4.046,21.524,21.524,0,0,0-3.918,5.909,31.486,31.486,0,0,0-2.44,10.533,1.638,1.638,0,0,1,1.284-.706,2.88,2.88,0,0,1,.706-.064A32.841,32.841,0,0,1,107.353,112.843Z" transform="translate(-37.001 -35.098)"/>
    <path id="Path_34" data-name="Path 34" class="cls-1" d="M47.971,119.713c.064.193.064.385.128.578.064.771,0,1.541,0,2.248a9.587,9.587,0,0,0,1.67,6.037,8.815,8.815,0,0,0,4.753,3.083,12.075,12.075,0,0,0,4.56.193,12.468,12.468,0,0,1,1.541-.128,1.226,1.226,0,0,1,1.028.385,23.49,23.49,0,0,0-2.954-7.45,14.459,14.459,0,0,0-3.532-3.853,11.182,11.182,0,0,0-4.945-2.248A15.53,15.53,0,0,0,47.2,118.3,3.685,3.685,0,0,1,47.971,119.713Z" transform="translate(-16.859 -42.289)"/>
  </g>
</svg>
