<svg xmlns="http://www.w3.org/2000/svg" xmlns:xlink="http://www.w3.org/1999/xlink" width="157" height="47"><defs><path id="a" d="M0 .1h24.8v46.8H0z"/><path id="c" d="M0 .1h24.8v46.8H0z"/><path id="e" d="M9 13V0H0V13H9z"/></defs><g fill="none" fill-rule="evenodd"><path fill="#4F8FED" d="M24.8 23.1A22 22 0 0 1 22 35.5c-2 3-4.7 5.3-6.2 8.5-.3.5-.4 1-.5 1.6a3.7 3.7 0 0 0 0 .9v.5c-1-1.8-2.3-3.4-2.7-5.5a12.7 12.7 0 0 1 .5-6.8c.8-2.3 2.5-4.3 4-6.1l1.6-2c1.6-2.1 3.1-4.3 4.3-6.7 1-2 1.8-4.1 1.8-6.3v9.5"/><path d="M15.4 47a.7.7 0 0 1-.1-.1 20.4 20.4 0 0 1-2-4.4c-.7-2.3-.9-4.9-.1-7.2.4-1.2 1-2.2 1.6-3.2l1.5-1.9h5c-1 1-2 2.4-3.1 3.8-1 1.1-1.8 2.6-2.4 4a11.1 11.1 0 0 0-.6 8.5l.2.5"/><g transform="translate(0 .1)"><mask id="b" fill="#fff"><use xlink:href="#a"/></mask><path fill="#306CCC" d="M24.8 13.5c0 2-.4 4-1.3 6a35.5 35.5 0 0 1-6.2 9.4L14.8 32c-.6 1-1.2 2-1.6 3.1a12 12 0 0 0 .2 7.3 12 12 0 0 0 0 .4 14.9 14.9 0 0 0 .2.4v.1l.1.2a32.7 32.7 0 0 0 .2.4v.2l.1.2.1.1v.2h.1a25.8 25.8 0 0 0 .2.5v.2h.2v.2l.1.2v.1a20.2 20.2 0 0 0 .7 1C12.2 46.4 7.9 45 5 41.4a13.8 13.8 0 0 1-2.7-7 12.2 12.2 0 0 1 .5-4.7 9.7 9.7 0 0 1 .3-.8c1.7-4.6 6-7.6 10.4-9.5 2.3-1 4.7-1.7 6.2-3.6 2-2.3 2-6.2-.1-8.5a6.4 6.4 0 0 0-4-2c-1.4-.2-2.9 0-4.1.8a5.8 5.8 0 0 0-1.3 1v.1a6.5 6.5 0 0 0-.5.7A6.7 6.7 0 0 0 9 9.2v.2a7 7 0 0 0-.3 3.2 5.3 5.3 0 0 0 0 .5c.2.5.3 1 .6 1.4-1-1.3-1.6-2.9-2.6-4.1-1.1-1.3-3-2-4.4-1-1 .6-1.3 2-1.3 3.2 0 3 1.1 6.1 3.3 8.3-.6-.6-1.2-1-1.7-1.7l-1.4-2A11.6 11.6 0 0 1 0 12.5a10.9 10.9 0 0 1 .1-2.1A12.5 12.5 0 0 1 13.1.2a12.8 12.8 0 0 1 11.6 11.6l.1 1.7" mask="url(#b)"/></g><g transform="translate(0 .1)"><mask id="d" fill="#fff"><use xlink:href="#c"/></mask><path fill="#306CCC" d="M24.8 13.5c0 2-.4 4-1.3 6a35.5 35.5 0 0 1-6.2 9.4L14.8 32c-.6 1-1.2 2-1.6 3.1a12 12 0 0 0 .2 7.3 12 12 0 0 0 0 .4 14.9 14.9 0 0 0 .2.4v.1l.1.2a32.7 32.7 0 0 0 .2.4v.2l.1.2.1.1v.2h.1a25.8 25.8 0 0 0 .2.5v.2h.2v.2l.1.2v.1a20.2 20.2 0 0 0 .7 1C12.2 46.4 7.9 45 5 41.4a13.8 13.8 0 0 1-2.7-7 12.2 12.2 0 0 1 .5-4.7 9.7 9.7 0 0 1 .3-.8c1.7-4.6 6-7.6 10.4-9.5 2.3-1 4.7-1.7 6.2-3.6 2-2.3 2-6.2-.1-8.5a6.4 6.4 0 0 0-4-2c-1.4-.2-2.9 0-4.1.8a5.8 5.8 0 0 0-1.3 1v.1a6.5 6.5 0 0 0-.5.7A6.7 6.7 0 0 0 9 9.2v.2a7 7 0 0 0-.3 3.2 5.3 5.3 0 0 0 0 .5c.2.5.3 1 .6 1.4-1-1.3-1.6-2.9-2.6-4.1-1.1-1.3-3-2-4.4-1-1 .6-1.3 2-1.3 3.2 0 3 1.1 6.1 3.3 8.3-.6-.6-1.2-1-1.7-1.7l-1.4-2A11.6 11.6 0 0 1 0 12.5a10.9 10.9 0 0 1 .1-2.1A12.5 12.5 0 0 1 13.1.2a12.8 12.8 0 0 1 11.6 11.6l.1 1.7" mask="url(#d)"/></g><path d="M2.9 29.8a12.2 12.2 0 0 0-.5 4.6c.2 2.5 1.1 4.9 2.7 7 2.8 3.8 7 5 10.3 5.6-.3-.1-12-5.3-5.8-17.2H3zM15.8 5.3c-2.2-.2-4.2.4-5.8 2.3a6.7 6.7 0 0 0-.7 7c-.2-.2-5.8-8.8 4.1-11.4l2.4 2.1z"/><path fill="#306CCC" d="M14.5 12.6a1.1 1.1 0 0 0 0 .1v.6c.1.5.1 1-.1 1.6l-1 1a3 3 0 0 1-1.2.1h-.4l-.3.2c.1-.7.2-1.4.5-2l.7-1.1a3 3 0 0 1 2-1 .7.7 0 0 0-.2.5m-9.2 2V15.3c0 .4 0 .8.3 1.2.2.2.5.4.9.5.3.1.6.1.8 0h.3l.2.1-.5-1.4a2.9 2.9 0 0 0-.7-.7 2.2 2.2 0 0 0-1-.4 2.3 2.3 0 0 0-.5 0c.1 0 .2 0 .2.2m39 8L43 18.1l-1.5 4.4h3zm-2.7-7.8h2.6l4.5 12.5h-2.9l-1-2.8H41l-1 2.8h-2.9L41.6 15zm7.3 7.9c0-.6.2-1.2.4-1.8a4.5 4.5 0 0 1 1-1.6c.4-.4.9-.7 1.5-1 .6-.3 1.3-.4 2-.4 1.1 0 2 .2 2.7.7a4.3 4.3 0 0 1 1.7 1.8l-2.8.8c-.3-.6-.8-.9-1.5-.9a1.9 1.9 0 0 0-1.5.7c-.4.4-.6 1-.6 1.7 0 .4 0 .7.2 1 0 .3.2.6.4.8l.7.5.8.1c.3 0 .6 0 1-.2l.6-.7 2.7.9c-.4.7-.9 1.3-1.6 1.7a5 5 0 0 1-2.7.7c-.8 0-1.5-.1-2.1-.4a4.8 4.8 0 0 1-1.6-1 4.5 4.5 0 0 1-1-1.6 5 5 0 0 1-.3-1.8m10 0c0-.6 0-1.2.2-1.8a4.5 4.5 0 0 1 1-1.6c.4-.4 1-.7 1.6-1 .6-.3 1.3-.4 2-.4 1.1 0 2 .2 2.7.7a4.3 4.3 0 0 1 1.6 1.8l-2.7.8c-.3-.6-.9-.9-1.6-.9a1.9 1.9 0 0 0-1.4.7c-.4.4-.6 1-.6 1.7l.1 1 .5.8a2 2 0 0 0 1.4.6c.4 0 .7 0 1-.2.3-.2.5-.4.6-.7l2.8.9c-.4.7-1 1.3-1.7 1.7a5 5 0 0 1-2.7.7c-.7 0-1.4-.1-2-.4a4.8 4.8 0 0 1-1.6-1 4.5 4.5 0 0 1-1-1.6 5 5 0 0 1-.3-1.8m16.8-.9c-.1-.5-.3-1-.7-1.4-.3-.3-.8-.5-1.3-.5-.6 0-1 .2-1.4.6-.3.3-.5.8-.6 1.3h4zm-2 5.7c-.8 0-1.4-.1-2-.4a4.6 4.6 0 0 1-1.6-1 4.4 4.4 0 0 1-1-1.5 4.9 4.9 0 0 1-.3-1.8c0-.7.1-1.3.3-1.9a4.6 4.6 0 0 1 1-1.5c.4-.5 1-.8 1.5-1.1.6-.3 1.3-.4 2.1-.4s1.5.1 2 .4a4.6 4.6 0 0 1 1.6 1c.4.5.8 1 1 1.6.2.5.3 1.2.3 1.8a6.6 6.6 0 0 1 0 .5v.4h-6.8c0 .6.2 1 .6 1.4.4.3.9.5 1.4.5l1.2-.3c.4-.2.6-.5.7-.8l2.4.6c-.3.8-1 1.4-1.7 1.8-.7.5-1.6.7-2.7.7zm6.1-13h2.8V24c0 .7.3 1.1 1 1.1a2 2 0 0 0 .9-.2l.3 2-1.2.5-1.3.1c-.8 0-1.4-.2-1.8-.6-.4-.5-.7-1-.7-1.9V14.6zm9.3 11c.4 0 .6 0 1-.2.2 0 .5-.2.6-.4.3-.2.4-.4.4-.7v-.8a4.5 4.5 0 0 0-.8-.3 4.4 4.4 0 0 0-.7 0c-.6 0-1 0-1.3.3a1 1 0 0 0-.5 1c0 .3.1.5.4.8.2.2.6.3 1 .3m-.9 2c-.4 0-.8 0-1.2-.2a3 3 0 0 1-1-.6 3 3 0 0 1-.7-1 2.8 2.8 0 0 1-.2-1.1 2.7 2.7 0 0 1 1-2.2 4 4 0 0 1 1.3-.7 5.2 5.2 0 0 1 1.6-.2H90l1 .4v-.4c0-1.1-.7-1.7-1.9-1.7-.5 0-1 .1-1.4.3-.5.2-1 .4-1.5.8l-.8-1.8a7.3 7.3 0 0 1 2-.9 7 7 0 0 1 2-.3c1.4 0 2.4.3 3.2 1 .8.7 1.1 1.6 1.1 2.9v2.4c0 .2 0 .4.2.6l.4.2v2.3a4.7 4.7 0 0 1-.6.2 6.2 6.2 0 0 1-.6 0 2 2 0 0 1-1.2-.3c-.2-.2-.4-.5-.5-.9V26a4.2 4.2 0 0 1-1.5 1.2 4 4 0 0 1-1.8.4"/><path fill="#4F8FED" d="M107.4 18.6l-.4-.3a7.5 7.5 0 0 0-1.8-.7 4 4 0 0 0-1-.2c-1.1 0-1.6.3-1.6 1l.1.6.5.3a79.1 79.1 0 0 0 3.6 1.2c.5.2.9.4 1.2.7l.8 1 .2 1.6c0 .7 0 1.3-.4 1.7a3.3 3.3 0 0 1-1 1.2c-.4.3-1 .5-1.5.7a7.3 7.3 0 0 1-1.7.2 10 10 0 0 1-2.8-.4 11 11 0 0 1-1.3-.5A7.3 7.3 0 0 1 99 26l1.3-2.5.4.3 1 .5 1.2.5 1.4.2c1 0 1.6-.3 1.6-1a.8.8 0 0 0-.3-.5 2.1 2.1 0 0 0-.6-.5 6.8 6.8 0 0 0-1-.3l-1.1-.4a10.3 10.3 0 0 1-1.5-.5 4 4 0 0 1-1-.7 2.6 2.6 0 0 1-.7-1l-.2-1.2c0-.7.1-1.2.4-1.8.2-.5.6-.9 1-1.2.4-.4.9-.6 1.4-.8a5.7 5.7 0 0 1 1.8-.3l1.3.1a9.6 9.6 0 0 1 3.2 1.3l-1.3 2.4zm9.4 3.3c0-.5-.3-1-.6-1.4-.4-.3-.8-.5-1.4-.5-.5 0-1 .2-1.3.6-.4.3-.6.8-.6 1.3h4zm-2 5.7c-.7 0-1.4-.1-2-.4a4.6 4.6 0 0 1-1.6-1 4.4 4.4 0 0 1-1-1.5 4.9 4.9 0 0 1-.3-1.8c0-.7.2-1.3.4-1.9a4.6 4.6 0 0 1 1-1.5c.4-.5.9-.8 1.5-1.1.6-.3 1.3-.4 2-.4.9 0 1.5.1 2.2.4a4.6 4.6 0 0 1 1.5 1l1 1.6c.2.5.3 1.2.3 1.8a6.6 6.6 0 0 1 0 .5l-.1.4h-6.8c0 .6.3 1 .7 1.4.4.3.8.5 1.4.5.4 0 .8-.1 1.1-.3.4-.2.7-.5.8-.8l2.4.6c-.4.8-1 1.4-1.7 1.8-.8.5-1.7.7-2.7.7zm9.7-2a2.5 2.5 0 0 0 1.5-.6c.3-.2.5-.4.5-.7v-.8a4.5 4.5 0 0 0-.8-.3 4.4 4.4 0 0 0-.8 0c-.6 0-1 0-1.3.3a1 1 0 0 0-.5 1c0 .3.1.5.4.8.2.2.6.3 1 .3m-.9 2c-.4 0-.8 0-1.2-.2a3 3 0 0 1-1-.6 3 3 0 0 1-.7-1 2.8 2.8 0 0 1-.2-1.1 2.7 2.7 0 0 1 1-2.2 4 4 0 0 1 1.3-.7 5.2 5.2 0 0 1 1.6-.2h1.1l1 .4v-.4c0-1.1-.7-1.7-1.9-1.7-.5 0-1 .1-1.4.3-.5.2-1 .4-1.4.8l-.9-1.8a7.3 7.3 0 0 1 2-.9 7 7 0 0 1 2-.3c1.4 0 2.5.3 3.2 1 .8.7 1.1 1.6 1.1 2.9v2.4c0 .2 0 .4.2.6l.4.2v2.3a4.7 4.7 0 0 1-.6.2 6.2 6.2 0 0 1-.6 0 2 2 0 0 1-1.2-.3c-.2-.2-.4-.5-.5-.9V26a4.2 4.2 0 0 1-1.5 1.2 4 4 0 0 1-1.8.4m13.5-7a5.3 5.3 0 0 0-1.8.3c-.6.2-1 .6-1.2 1v5.5h-2.8v-9.2h2.5V20a4 4 0 0 1 1.3-1.5c.4-.4 1-.5 1.5-.6h.3a.9.9 0 0 1 .2 0v2.6zm.2 2.2c0-.6 0-1.2.3-1.8a4.5 4.5 0 0 1 1-1.6c.4-.4.9-.7 1.5-1 .6-.3 1.3-.4 2-.4 1.1 0 2 .2 2.8.7a4.3 4.3 0 0 1 1.6 1.8l-2.7.8c-.4-.6-1-.9-1.6-.9a1.9 1.9 0 0 0-1.5.7c-.4.4-.6 1-.6 1.7 0 .4 0 .7.2 1 0 .3.2.6.4.8a2 2 0 0 0 1.5.6c.3 0 .6 0 1-.2l.6-.7 2.7.9c-.3.7-.9 1.3-1.6 1.7a5 5 0 0 1-2.7.7c-.8 0-1.5-.1-2-.4a4.8 4.8 0 0 1-1.6-1 4.5 4.5 0 0 1-1-1.6 5 5 0 0 1-.3-1.8"/><g transform="translate(147.7 14.5)"><mask id="f" fill="#fff"><use xlink:href="#e"/></mask><path fill="#4F8FED" d="M9 13H6.1V7.8c0-.6-.2-1-.4-1.3-.2-.3-.5-.5-1-.5-.1 0-.3 0-.5.2a2.1 2.1 0 0 0-.5.3 3 3 0 0 0-.5.5 2.3 2.3 0 0 0-.4.7V13H.1V0H3v5.2A3.5 3.5 0 0 1 4.2 4a3.8 3.8 0 0 1 1.9-.4 3 3 0 0 1 1.5.3l.8.8c.2.3.4.7.4 1.1L9 7.1V13z" mask="url(#f)"/></g></g></svg>